<?xml version="1.0" encoding="iso-8859-1"?>
<!-- Generator: Adobe Illustrator 19.0.0, SVG Export Plug-In . SVG Version: 6.00 Build 0)  -->
<svg version="1.1" id="Layer_1" xmlns="http://www.w3.org/2000/svg" xmlns:xlink="http://www.w3.org/1999/xlink" x="0px" y="0px"
	 viewBox="0 0 612 792" style="enable-background:new 0 0 612 792;" xml:space="preserve">
<g>
	<path d="M303.668,538.169c0.518-1.633,1.417-2.835,2.127-4.125c0.763-1.386,1.583-2.741,2.373-4.112
		c0.749-1.299,1.489-2.603,2.238-3.902c0.791-1.371,1.59-2.737,2.383-4.107c0.751-1.298,1.499-2.597,2.247-3.896
		c0.79-1.372,1.577-2.745,2.369-4.115c0.75-1.298,1.506-2.593,2.257-3.891c0.793-1.37,1.582-2.742,2.373-4.112
		c0.75-1.299,1.501-2.597,2.251-3.895c0.792-1.37,1.587-2.739,2.377-4.11c0.749-1.299,1.493-2.601,2.243-3.899
		c0.792-1.371,1.589-2.738,2.381-4.108c0.75-1.298,1.495-2.599,2.244-3.899c0.79-1.371,1.582-2.742,2.374-4.112
		c0.751-1.298,1.504-2.594,2.255-3.893c0.792-1.37,1.583-2.741,2.373-4.113c0.748-1.3,1.492-2.601,2.24-3.901
		c0.79-1.371,1.582-2.741,2.375-4.111c0.751-1.298,1.505-2.594,2.257-3.891c0.794-1.369,1.59-2.737,2.383-4.107
		c0.751-1.298,1.499-2.597,2.248-3.896c0.791-1.371,1.58-2.743,2.372-4.113c0.75-1.298,1.505-2.594,2.256-3.892
		c0.792-1.37,1.581-2.742,2.372-4.113c0.75-1.299,1.501-2.596,2.252-3.894c0.792-1.37,1.585-2.74,2.376-4.111
		c0.749-1.299,1.494-2.6,2.244-3.899c0.792-1.371,1.588-2.739,2.38-4.109c0.751-1.298,1.501-2.596,2.249-3.896
		c0.79-1.371,1.576-2.745,2.369-4.115c0.751-1.298,1.509-2.591,2.26-3.889c0.793-1.37,1.579-2.743,2.371-4.114
		c0.749-1.299,1.501-2.596,2.252-3.894c0.793-1.37,1.61-2.726,2.371-4.114c0.706-1.287,1.591-2.492,2.159-4.011
		c-0.516-0.14-0.819-0.278-1.13-0.297c-0.748-0.044-1.499-0.041-2.249-0.041c-52.582-0.002-105.164-0.002-157.746,0.005
		c-1.058,0-2.146-0.152-3.308,0.299c0.761,2.246,2.137,4.03,3.2,5.97c1.08,1.972,2.243,3.899,3.366,5.848s2.24,3.901,3.365,5.849
		c1.125,1.948,2.259,3.89,3.386,5.837c1.126,1.947,2.246,3.898,3.37,5.846c1.125,1.948,2.255,3.892,3.378,5.841
		c1.124,1.948,2.239,3.902,3.364,5.849s2.26,3.889,3.387,5.836c1.127,1.947,2.248,3.897,3.372,5.845
		c1.124,1.948,2.247,3.897,3.372,5.844s2.253,3.893,3.377,5.841c1.124,1.948,2.243,3.9,3.369,5.846
		c1.085,1.875,2.181,3.743,3.264,5.618c1.125,1.948,2.236,3.903,3.36,5.851c1.124,1.948,2.26,3.889,3.387,5.836
		c1.127,1.947,2.248,3.896,3.372,5.844c1.124,1.948,2.247,3.897,3.371,5.846c1.124,1.948,2.247,3.897,3.372,5.845
		c1.125,1.948,2.252,3.894,3.379,5.84c1.127,1.946,2.259,3.89,3.383,5.838c1.124,1.948,2.236,3.903,3.36,5.851
		c1.124,1.948,2.261,3.889,3.386,5.836c1.125,1.947,2.25,3.895,3.363,5.85c1.099,1.93,2.321,3.797,3.22,5.785
		c-0.303,0.232-0.428,0.411-0.553,0.411c-53.663,0.035-107.327,0.059-160.99,0.073c-0.398,0-0.796-0.14-1.298-0.234
		c-0.076-0.531-0.182-1.006-0.204-1.485c-0.034-0.748-0.014-1.5-0.014-2.25c0-91.665-0.001-183.329,0.005-274.994
		c0-0.959-0.107-1.938,0.21-3.25c1.783,2.309,2.855,4.633,4.161,6.806c1.33,2.213,2.591,4.468,3.882,6.704
		c1.291,2.237,2.581,4.474,3.873,6.71c1.292,2.236,2.589,4.469,3.88,6.706c1.291,2.236,2.576,4.477,3.868,6.712
		c1.292,2.236,2.592,4.468,3.885,6.702c1.294,2.235,2.587,4.47,3.876,6.707c1.289,2.238,2.569,4.481,3.86,6.717
		c1.291,2.237,2.592,4.467,3.886,6.702c1.293,2.235,2.582,4.473,3.873,6.71c1.291,2.236,2.583,4.473,3.875,6.709
		c1.292,2.236,2.585,4.471,3.876,6.708s2.577,4.476,3.869,6.712c1.292,2.236,2.589,4.469,3.883,6.704
		c1.294,2.235,2.587,4.47,3.878,6.707c1.291,2.237,2.577,4.476,3.867,6.713c1.29,2.237,2.581,4.474,3.875,6.708
		c1.294,2.235,2.595,4.465,3.888,6.701c1.293,2.235,2.58,4.474,3.869,6.712c1.289,2.238,2.546,4.494,3.872,6.71
		c1.313,2.194,2.447,4.505,4.106,6.807c0.558-0.853,0.989-1.447,1.354-2.078c5.961-10.31,11.913-20.626,17.869-30.939
		c11.746-20.339,23.495-40.675,35.238-61.016c8.828-15.291,17.646-30.589,26.482-45.875c0.489-0.846,0.79-1.859,1.793-2.358
		c0.828,0.028,1.347,0.516,1.735,1.205c1.47,2.611,2.94,5.222,4.416,7.829c1.435,2.534,2.859,5.074,4.323,7.591
		c1.503,2.584,3.074,5.128,4.57,7.715c3.456,5.976,6.896,11.961,10.322,17.954c2.725,4.766,5.407,9.557,8.137,14.32
		c1.525,2.661,3.126,5.278,4.663,7.933c2.37,4.095,4.704,8.212,7.073,12.308c3.116,5.385,6.264,10.752,9.375,16.14
		c2.948,5.107,5.858,10.236,8.8,15.346c3.851,6.69,7.722,13.369,11.573,20.059c2.194,3.811,4.361,7.638,6.555,11.449
		c0.324,0.563,0.733,1.078,1.205,1.763c1.642-2.001,2.625-4.202,3.857-6.242c1.291-2.139,2.507-4.323,3.757-6.488
		c1.208-2.092,2.415-4.185,3.624-6.276c1.25-2.164,2.503-4.326,3.752-6.491c1.207-2.092,2.41-4.188,3.618-6.279
		c1.25-2.164,2.506-4.324,3.757-6.488c1.209-2.091,2.413-4.186,3.622-6.277c1.25-2.164,2.503-4.326,3.754-6.49
		c1.209-2.092,2.417-4.184,3.623-6.277c1.248-2.165,2.491-4.333,3.743-6.496c1.21-2.091,2.432-4.175,3.641-6.267
		c1.209-2.091,2.406-4.19,3.613-6.282c1.248-2.165,2.501-4.328,3.752-6.491c1.21-2.091,2.421-4.181,3.629-6.273
		c1.25-2.164,2.496-4.33,3.745-6.495c1.207-2.093,2.415-4.185,3.623-6.277c1.25-2.164,2.501-4.327,3.751-6.491
		c1.209-2.092,2.418-4.183,3.627-6.275c1.25-2.164,2.5-4.328,3.751-6.491c1.209-2.091,2.422-4.181,3.628-6.274
		c1.248-2.165,2.466-4.348,3.745-6.495c1.224-2.056,2.318-4.196,3.62-6.144c0.255,0.07,0.357,0.071,0.41,0.121
		c0.053,0.05,0.078,0.15,0.081,0.23c0.024,0.498,0.056,0.997,0.056,1.496c0.002,93.159,0.002,186.318,0.002,279.571
		c-0.58,0.174-1.026,0.391-1.487,0.429c-0.828,0.07-1.665,0.039-2.498,0.039c-51.915,0.001-103.83,0.002-155.745-0.003
		C305.948,538.378,304.877,538.475,303.668,538.169z"/>
</g>
</svg>
